# Blender v2.79 (sub 0) OBJ File: ''
# www.blender.org
mtllib torch_base.mtl
o Cylinder
v -0.000000 -0.973810 -0.889290
v 0.000000 0.104779 -1.036971
v 0.444645 -0.973810 -0.770148
v 0.518486 0.104779 -0.898044
v 0.770148 -0.973810 -0.444645
v 0.898044 0.104779 -0.518486
v 0.889290 -0.973810 0.000000
v 1.036971 0.104779 0.000000
v 0.770148 -0.973810 0.444645
v 0.898044 0.104779 0.518486
v 0.444645 -0.973810 0.770148
v 0.518486 0.104779 0.898044
v 0.000000 -0.973810 0.889290
v 0.000000 0.104779 1.036971
v -0.444645 -0.973810 0.770148
v -0.518485 0.104779 0.898044
v -0.770148 -0.973810 0.444645
v -0.898043 0.104779 0.518486
v -0.889290 -0.973810 0.000000
v -1.036971 0.104779 0.000000
v -0.770148 -0.973810 -0.444645
v -0.898044 0.104779 -0.518485
v -0.444646 -0.973810 -0.770148
v -0.518486 0.104779 -0.898043
v 0.373671 0.209058 -0.647216
v -0.000000 0.209058 -0.747341
v 0.647216 0.209058 -0.373670
v 0.747341 0.209058 0.000000
v 0.647216 0.209058 0.373671
v 0.373671 0.209058 0.647216
v 0.000000 0.209058 0.747341
v -0.373670 0.209058 0.647216
v -0.647216 0.209058 0.373671
v -0.747341 0.209058 0.000000
v -0.647217 0.209058 -0.373670
v -0.373671 0.209058 -0.647216
v 0.320454 -0.825063 -0.555043
v -0.000000 -0.825063 -0.640908
v 0.555043 -0.825063 -0.320454
v 0.640908 -0.825063 0.000000
v 0.555043 -0.825063 0.320454
v 0.320454 -0.825063 0.555043
v 0.000000 -0.825063 0.640908
v -0.320454 -0.825063 0.555043
v -0.555043 -0.825063 0.320454
v -0.640908 -0.825063 0.000000
v -0.555043 -0.825063 -0.320454
v -0.320454 -0.825063 -0.555042
v -0.000000 -1.063364 -0.394459
v 0.197230 -1.063364 -0.341612
v 0.341612 -1.063364 -0.197230
v 0.394459 -1.063364 0.000000
v 0.341612 -1.063364 0.197230
v 0.197230 -1.063364 0.341612
v 0.000000 -1.063364 0.394460
v -0.197230 -1.063364 0.341612
v -0.341612 -1.063364 0.197230
v -0.394460 -1.063364 0.000000
v -0.341612 -1.063364 -0.197229
v -0.197230 -1.063364 -0.341612
v -0.000000 -3.060104 -0.148260
v 0.074130 -3.060104 -0.128397
v 0.128397 -3.060104 -0.074130
v 0.148260 -3.060104 0.000000
v 0.128397 -3.060104 0.074130
v 0.074130 -3.060104 0.128397
v 0.000000 -3.060104 0.148260
v -0.074130 -3.060104 0.128397
v -0.128397 -3.060104 0.074130
v -0.148260 -3.060104 0.000000
v -0.128397 -3.060104 -0.074130
v -0.074130 -3.060104 -0.128397
vn 0.2566 -0.1311 -0.9576
vn 0.7010 -0.1311 -0.7010
vn 0.9576 -0.1311 -0.2566
vn 0.9576 -0.1311 0.2566
vn 0.7010 -0.1311 0.7010
vn 0.2566 -0.1311 0.9576
vn -0.2566 -0.1311 0.9576
vn -0.7010 -0.1311 0.7010
vn -0.9576 -0.1311 0.2566
vn -0.9576 -0.1311 -0.2566
vn 0.3374 0.9370 0.0904
vn -0.7010 -0.1311 -0.7010
vn -0.2566 -0.1311 -0.9576
vn 0.1302 -0.9829 -0.1302
vn -0.9612 0.0989 0.2575
vn -0.0904 0.9370 -0.3374
vn 0.0904 0.9370 -0.3374
vn 0.3374 0.9370 -0.0904
vn -0.2470 0.9370 -0.2470
vn 0.2470 0.9370 -0.2470
vn -0.3374 0.9370 -0.0904
vn -0.3374 0.9370 0.0904
vn -0.2470 0.9370 0.2470
vn -0.0904 0.9370 0.3374
vn 0.0904 0.9370 0.3374
vn 0.2470 0.9370 0.2470
vn 0.0000 1.0000 -0.0000
vn 0.9612 0.0989 0.2575
vn 0.2575 0.0989 -0.9612
vn -0.9612 0.0989 -0.2575
vn 0.7036 0.0989 0.7036
vn -0.2575 0.0989 0.9612
vn 0.7036 0.0989 -0.7036
vn -0.7036 0.0989 -0.7036
vn 0.2575 0.0989 0.9612
vn -0.7036 0.0989 0.7036
vn 0.9612 0.0989 -0.2575
vn -0.2575 0.0989 -0.9612
vn 0.2570 -0.1183 0.9591
vn -0.1779 -0.9829 -0.0477
vn -0.1779 -0.9829 0.0477
vn -0.1302 -0.9829 0.1302
vn -0.0477 -0.9829 0.1779
vn 0.0477 -0.9829 0.1779
vn 0.1302 -0.9829 0.1302
vn 0.1779 -0.9829 0.0477
vn -0.0477 -0.9829 -0.1779
vn 0.0477 -0.9829 -0.1779
vn 0.1779 -0.9829 -0.0477
vn -0.1302 -0.9829 -0.1302
vn 0.0000 -1.0000 -0.0000
vn 0.9591 -0.1183 -0.2570
vn -0.9591 -0.1183 -0.2570
vn -0.2570 -0.1183 0.9591
vn 0.9591 -0.1183 0.2570
vn -0.7021 -0.1183 -0.7021
vn 0.2570 -0.1183 -0.9591
vn -0.7021 -0.1183 0.7021
vn 0.7021 -0.1183 0.7021
vn -0.2570 -0.1183 -0.9591
vn 0.7021 -0.1183 -0.7021
vn -0.9591 -0.1183 0.2570
usemtl None
s off
f 1//1 2//1 4//1 3//1
f 3//2 4//2 6//2 5//2
f 5//3 6//3 8//3 7//3
f 7//4 8//4 10//4 9//4
f 9//5 10//5 12//5 11//5
f 11//6 12//6 14//6 13//6
f 13//7 14//7 16//7 15//7
f 15//8 16//8 18//8 17//8
f 17//9 18//9 20//9 19//9
f 19//10 20//10 22//10 21//10
f 10//11 8//11 28//11 29//11
f 21//12 22//12 24//12 23//12
f 23//13 24//13 2//13 1//13
f 3//14 5//14 51//14 50//14
f 28//15 27//15 39//15 40//15
f 2//16 24//16 36//16 26//16
f 4//17 2//17 26//17 25//17
f 8//18 6//18 27//18 28//18
f 24//19 22//19 35//19 36//19
f 6//20 4//20 25//20 27//20
f 22//21 20//21 34//21 35//21
f 20//22 18//22 33//22 34//22
f 18//23 16//23 32//23 33//23
f 16//24 14//24 31//24 32//24
f 14//25 12//25 30//25 31//25
f 12//26 10//26 29//26 30//26
f 37//27 38//27 48//27 47//27 46//27 45//27 44//27 43//27 42//27 41//27 40//27 39//27
f 35//28 34//28 46//28 47//28
f 32//29 31//29 43//29 44//29
f 29//30 28//30 40//30 41//30
f 36//31 35//31 47//31 48//31
f 25//32 26//32 38//32 37//32
f 33//33 32//33 44//33 45//33
f 30//34 29//34 41//34 42//34
f 26//35 36//35 48//35 38//35
f 27//36 25//36 37//36 39//36
f 34//37 33//37 45//37 46//37
f 31//38 30//38 42//38 43//38
f 54//39 55//39 67//39 66//39
f 19//40 21//40 59//40 58//40
f 17//41 19//41 58//41 57//41
f 15//42 17//42 57//42 56//42
f 13//43 15//43 56//43 55//43
f 11//44 13//44 55//44 54//44
f 9//45 11//45 54//45 53//45
f 7//46 9//46 53//46 52//46
f 23//47 1//47 49//47 60//47
f 1//48 3//48 50//48 49//48
f 5//49 7//49 52//49 51//49
f 21//50 23//50 60//50 59//50
f 61//51 62//51 63//51 64//51 65//51 66//51 67//51 68//51 69//51 70//51 71//51 72//51
f 51//52 52//52 64//52 63//52
f 58//53 59//53 71//53 70//53
f 55//54 56//54 68//54 67//54
f 52//55 53//55 65//55 64//55
f 59//56 60//56 72//56 71//56
f 49//57 50//57 62//57 61//57
f 56//58 57//58 69//58 68//58
f 53//59 54//59 66//59 65//59
f 60//60 49//60 61//60 72//60
f 50//61 51//61 63//61 62//61
f 57//62 58//62 70//62 69//62
